<svg id="color" enable-background="new 0 0 24 24" height="512" viewBox="0 0 24 24" width="512" xmlns="http://www.w3.org/2000/svg"><path d="m12 10h-.028c-.226-.009-.436-.119-.572-.3l-1.275-1.7h-2.375c-.965 0-1.75-.785-1.75-1.75v-4.5c0-.965.785-1.75 1.75-1.75h8.5c.965 0 1.75.785 1.75 1.75v4.5c0 .965-.785 1.75-1.75 1.75h-2.16l-1.526 1.744c-.142.163-.348.256-.564.256z" fill="#03a9f4"/><path d="m12 17.5c1.654 0 3-1.346 3-3s-1.346-3-3-3-3 1.346-3 3 1.346 3 3 3z" fill="#2196f3"/><path d="m14.75 19h-5.5c-1.517 0-2.75 1.233-2.75 2.75v1.5c0 .414.336.75.75.75h9.5c.414 0 .75-.336.75-.75v-1.5c0-1.517-1.233-2.75-2.75-2.75z" fill="#2196f3"/><path d="m12 0h-4.25c-.965 0-1.75.785-1.75 1.75v4.5c0 .965.785 1.75 1.75 1.75h2.375l1.275 1.7c.136.181.346.291.572.299l.028.001z" fill="#0393d4"/><path d="m12 11.5c-1.654 0-3 1.346-3 3s1.346 3 3 3z" fill="#1d83d4"/><path d="m12 19h-2.75c-1.517 0-2.75 1.233-2.75 2.75v1.5c0 .414.336.75.75.75h4.75z" fill="#1d83d4"/><path d="m4.5 6.25v-4.5c0-.26.03-.51.1-.75h-2.85c-.96 0-1.75.79-1.75 1.75v4.5c0 .96.79 1.75 1.75 1.75h.37l1.28 1.7c.14.18.35.29.57.3h.03c.22 0 .42-.09.56-.26l1.5-1.71c-.93-.58-1.56-1.61-1.56-2.78z" fill="#ffc107"/><path d="m4 17c1.103 0 2-.897 2-2s-.897-2-2-2-2 .897-2 2 .897 2 2 2z" fill="#4caf50"/><path d="m6.67 18.4c-1.01.76-1.67 1.98-1.67 3.35v.25h-4.25c-.41 0-.75-.34-.75-.75v-.5c0-1.52 1.23-2.75 2.75-2.75h2.5c.52 0 1.01.15 1.42.4z" fill="#4caf50"/><path d="m4 1h-2.25c-.96 0-1.75.79-1.75 1.75v4.5c0 .96.79 1.75 1.75 1.75h.37l1.28 1.7c.14.18.35.29.57.3h.03z" fill="#dea806"/><path d="m4 13c-1.103 0-2 .897-2 2s.897 2 2 2z" fill="#429846"/><path d="m4 18h-1.25c-1.52 0-2.75 1.23-2.75 2.75v.5c0 .41.34.75.75.75h3.25z" fill="#429846"/><path d="m22.25 1h-2.85c.07.24.1.49.1.75v4.5c0 1.17-.63 2.2-1.56 2.78l1.5 1.71c.14.17.34.26.56.26h.03c.22-.01.43-.12.57-.3l1.27-1.7h.38c.96 0 1.75-.79 1.75-1.75v-4.5c0-.96-.79-1.75-1.75-1.75z" fill="#ffc107"/><path d="m20 17c1.103 0 2-.897 2-2s-.897-2-2-2-2 .897-2 2 .897 2 2 2z" fill="#4caf50"/><path d="m24 20.75v.5c0 .41-.34.75-.75.75h-4.25v-.25c0-1.37-.66-2.59-1.67-3.35.41-.25.9-.4 1.42-.4h2.5c1.52 0 2.75 1.23 2.75 2.75z" fill="#4caf50"/><path d="m20 1h-.6c.07.24.1.49.1.75v4.5c0 1.17-.63 2.2-1.56 2.78l1.5 1.71c.14.17.34.26.56.26z" fill="#dea806"/><g fill="#429846"><path d="m20 13c-1.103 0-2 .897-2 2s.897 2 2 2z"/><path d="m20 18h-1.25c-.52 0-1.01.15-1.42.4 1.01.76 1.67 1.98 1.67 3.35v.25h1z"/></g></svg>