<svg id="line" enable-background="new 0 0 36 36" height="512" viewBox="0 0 36 36" width="512" xmlns="http://www.w3.org/2000/svg"><g><path d="m27.623 4.167c-6.917 0-11.667-3.583-15-3.583s-10.333 1.916-10.333 17.249 9.417 17.583 13.083 17.583c17.167.001 24.5-31.249 12.25-31.249z" fill="#efefef"/></g><g><path d="m32 5.5c-.827 0-1.5-.673-1.5-1.5s.673-1.5 1.5-1.5 1.5.673 1.5 1.5-.673 1.5-1.5 1.5zm0-2c-.276 0-.5.224-.5.5s.224.5.5.5.5-.224.5-.5-.224-.5-.5-.5z" fill="#a4afc1"/></g><g><circle cx="26" cy="21" fill="#f3f3f1" r="1.25"/></g><g><circle cx="10" cy="21" fill="#f3f3f1" r="1.25"/></g><g><circle cx="18" cy="20.5" fill="#f3f3f1" r="2.25"/></g><g><path d="m22.75 30v-2.25c0-1.105-.895-2-2-2h-5.5c-1.105 0-2 .895-2 2v2.25z" fill="#f3f3f1"/></g><g><path d="m6.75 28v-1.25c0-1.105.895-2 2-2h2.5c1.105 0 2 .895 2 2v1.25z" fill="#f3f3f1"/></g><g><path d="m22.75 28v-1.25c0-1.105.895-2 2-2h2.5c1.105 0 2 .895 2 2v1.25z" fill="#f3f3f1"/></g><g><path d="m23.25 7.75v4.5c0 .552-.448 1-1 1h-2.5l-1.75 2-1.5-2h-2.75c-.552 0-1-.448-1-1v-4.5c0-.552.448-1 1-1h8.5c.552 0 1 .448 1 1z" fill="#2fdf84"/></g><g><path d="m29.75 8.75v4.5c0 .552-.448 1-1 1h-.75l-1.75 2-1.5-2h-.75c-.552 0-1-.448-1-1v-4.5c0-.552.448-1 1-1h4.75c.552 0 1 .448 1 1z" fill="#2fdf84"/></g><g><path d="m13.25 8.75v4.5c0 .552-.448 1-1 1h-.75l-1.75 2-1.5-2h-.75c-.552 0-1-.448-1-1v-4.5c0-.552.448-1 1-1h4.75c.552 0 1 .448 1 1z" fill="#2fdf84"/></g><g><path d="m27 21c0-.19.049-.365.125-.526-.2-.425-.625-.724-1.125-.724-.69 0-1.25.56-1.25 1.25s.56 1.25 1.25 1.25c.5 0 .925-.299 1.125-.724-.076-.161-.125-.336-.125-.526z" fill="#d5dbe1"/></g><g><path d="m11 21c0-.19.049-.365.125-.526-.2-.425-.625-.724-1.125-.724-.69 0-1.25.56-1.25 1.25s.56 1.25 1.25 1.25c.5 0 .925-.299 1.125-.724-.076-.161-.125-.336-.125-.526z" fill="#d5dbe1"/></g><g><path d="m18 20.5c0-.831.455-1.548 1.125-1.938-.332-.193-.713-.312-1.125-.312-1.243 0-2.25 1.007-2.25 2.25s1.007 2.25 2.25 2.25c.412 0 .793-.119 1.125-.312-.67-.39-1.125-1.107-1.125-1.938z" fill="#d5dbe1"/></g><g><path d="m17.5 25.75h-2.25c-1.105 0-2 .895-2 2v2.25h2.25v-2.25c0-1.105.895-2 2-2z" fill="#d5dbe1"/></g><g><path d="m11 24.75h-2.25c-1.105 0-2 .895-2 2v1.25h2.25v-1.25c0-1.105.895-2 2-2z" fill="#d5dbe1"/></g><g><path d="m27 24.75h-2.25c-1.105 0-2 .895-2 2v1.25h2.25v-1.25c0-1.105.895-2 2-2z" fill="#d5dbe1"/></g><g><path d="m15 12.25v-4.5c0-.552.448-1 1-1h-2.25c-.552 0-1 .448-1 1v4.5c0 .552.448 1 1 1h2.25c-.552 0-1-.448-1-1z" fill="#00b871"/></g><g><path d="m18.75 13.25h-2.25l1.5 2 1.212-1.385z" fill="#00b871"/></g><g><path d="m27 14.25h-.75c-.552 0-1-.448-1-1v-4.5c0-.552.448-1 1-1h-2.25c-.552 0-1 .448-1 1v4.5c0 .552.448 1 1 1h.75l1.5 2 1.212-1.385z" fill="#00b871"/></g><g><path d="m10.5 14.25h-.75c-.552 0-1-.448-1-1v-4.5c0-.552.448-1 1-1h-2.25c-.552 0-1 .448-1 1v4.5c0 .552.448 1 1 1h.75l1.5 2 1.212-1.385z" fill="#00b871"/></g><g><path d="m18 16c-.009 0-.019 0-.028 0-.226-.009-.436-.119-.572-.299l-1.275-1.701h-2.375c-.965 0-1.75-.785-1.75-1.75v-4.5c0-.965.785-1.75 1.75-1.75h8.5c.965 0 1.75.785 1.75 1.75v4.5c0 .965-.785 1.75-1.75 1.75h-2.16l-1.526 1.744c-.142.163-.348.256-.564.256zm-4.25-8.5c-.138 0-.25.112-.25.25v4.5c0 .138.112.25.25.25h2.75c.236 0 .458.111.6.3l.945 1.26 1.141-1.303c.143-.163.348-.256.564-.256h2.5c.138 0 .25-.112.25-.25v-4.5c0-.138-.112-.25-.25-.25h-8.5z"/></g><g><path d="m26 17c-.01 0-.02 0-.029 0-.227-.009-.437-.12-.572-.301l-1.238-1.662 1.203-.896.684.917 1.139-1.301c.143-.163.348-.256.564-.256h.5c.136 0 .25-.114.25-.25v-4.5c0-.136-.114-.25-.25-.25h-2.251v-1.501h2.25c.965 0 1.75.785 1.75 1.75v4.5c0 .965-.785 1.75-1.75 1.75h-.16l-1.526 1.744c-.142.163-.348.256-.564.256z"/></g><g><path d="m10 17c-.216 0-.422-.093-.564-.256l-1.526-1.744h-.16c-.965 0-1.75-.785-1.75-1.75v-4.5c0-.965.785-1.75 1.75-1.75h2.25v1.5h-2.25c-.136 0-.25.114-.25.25v4.5c0 .136.114.25.25.25h.5c.216 0 .422.093.564.256l1.139 1.301.684-.917 1.203.896-1.238 1.662c-.136.182-.346.292-.572.301-.01.001-.02.001-.03.001z"/></g><g><path d="m26 23c-1.103 0-2-.897-2-2s.897-2 2-2 2 .897 2 2-.897 2-2 2zm0-2.5c-.276 0-.5.224-.5.5s.224.5.5.5.5-.224.5-.5-.224-.5-.5-.5z"/></g><g><path d="m30 28h-1.5v-1.25c0-.689-.561-1.25-1.25-1.25h-3.25v-1.5h3.25c1.517 0 2.75 1.233 2.75 2.75z"/></g><g><path d="m10 23c-1.103 0-2-.897-2-2s.897-2 2-2 2 .897 2 2-.897 2-2 2zm0-2.5c-.276 0-.5.224-.5.5s.224.5.5.5.5-.224.5-.5-.224-.5-.5-.5z"/></g><g><path d="m7.5 28h-1.5v-1.25c0-1.517 1.233-2.75 2.75-2.75h3.25v1.5h-3.25c-.689 0-1.25.561-1.25 1.25z"/></g><g><path d="m18 23.5c-1.654 0-3-1.346-3-3s1.346-3 3-3 3 1.346 3 3-1.346 3-3 3zm0-4.5c-.827 0-1.5.673-1.5 1.5s.673 1.5 1.5 1.5 1.5-.673 1.5-1.5-.673-1.5-1.5-1.5z"/></g><g><path d="m23.5 30h-1.5v-2.25c0-.689-.561-1.25-1.25-1.25h-5.5c-.689 0-1.25.561-1.25 1.25v2.25h-1.5v-2.25c0-1.517 1.233-2.75 2.75-2.75h5.5c1.517 0 2.75 1.233 2.75 2.75z"/></g><g><path d="m2 28.5h32v1.5h-32z"/></g></svg>